# xmcd
#
# Track frame offsets: 
#        150
#        14231
#        16780
#        30790
#        32589
#        48483
#        58125
#        74016
#        75963
#        88688
#        101843
#        118369
#        129386
#        148260
#        167628
#        180999
#        197138
#
# Disc length: 2688 seconds
#
# Revision: 3
# Processed by: cddbd v1.5.2PL0 Copyright (c) Steve Scherf et al.
# Submitted via: ExactAudioCopy v1.0b3
#
DISCID=e80a7e11
DTITLE=Scott H. Biram - Preachin' and Hollerin'
DYEAR=2002
DGENRE=Blues - Country - Folk
TTITLE0=We Shall Be Free
TTITLE1=Real Life Yodel
TTITLE2=The Long Chain Charlie
TTITLE3=Weary Visitors
TTITLE4=Truckdriver
TTITLE5=Ella Speed
TTITLE6=Ocean of Diamonds
TTITLE7=Free Radio Italy
TTITLE8=Whoa Back Buck
TTITLE9=Wreck My Car
TTITLE10=Tom Moore's Farm 
TTITLE11=Lost Case of Bein' Found
TTITLE12=Red River +Trouble in Mind
TTITLE13=Get Me Religion
TTITLE14=Pastures of Plenty
TTITLE15=God Don't Work
TTITLE16=Never on Sunday
EXTD=
EXTT0=
EXTT1=
EXTT2=
EXTT3=
EXTT4=
EXTT5=
EXTT6=
EXTT7=
EXTT8=
EXTT9=
EXTT10=
EXTT11=
EXTT12=
EXTT13=
EXTT14=
EXTT15=
EXTT16=
PLAYORDER=
